<svg xmlns="http://www.w3.org/2000/svg" width="360" height="300" viewBox="0 0 360 300" font-family="-apple-system, Segoe UI, Roboto, sans-serif">
  <rect width="360" height="300" rx="14" fill="#1e1e22"/>
  <!-- header -->
  <text x="20" y="34" fill="#e5e5ea" font-size="15" font-weight="700">◔ TokenScope</text>
  <text x="330" y="34" fill="#8e8e93" font-size="13" text-anchor="end">⟳</text>

  <!-- provider card -->
  <rect x="16" y="48" width="328" height="140" rx="10" fill="#2b2b30"/>
  <circle cx="34" cy="70" r="4" fill="#ff9f0a"/>
  <text x="46" y="75" fill="#e5e5ea" font-size="14" font-weight="700">Claude</text>

  <text x="30" y="106" fill="#8e8e93" font-size="11" font-weight="600">Usage Trend</text>
  <!-- sparkline bars -->
  <g fill="#ff9f0a">
    <rect x="196" y="98" width="6" height="10" rx="1"/>
    <rect x="205" y="92" width="6" height="16" rx="1"/>
    <rect x="214" y="100" width="6" height="8" rx="1"/>
    <rect x="223" y="88" width="6" height="20" rx="1"/>
    <rect x="232" y="95" width="6" height="13" rx="1"/>
    <rect x="241" y="84" width="6" height="24" rx="1"/>
    <rect x="250" y="99" width="6" height="9" rx="1"/>
    <rect x="259" y="90" width="6" height="18" rx="1"/>
    <rect x="268" y="82" width="6" height="26" rx="1"/>
    <rect x="277" y="94" width="6" height="14" rx="1"/>
    <rect x="286" y="86" width="6" height="22" rx="1"/>
    <rect x="295" y="79" width="6" height="29" rx="1"/>
    <rect x="304" y="91" width="6" height="17" rx="1"/>
    <rect x="313" y="83" width="6" height="25" rx="1"/>
    <rect x="322" y="88" width="6" height="20" rx="1"/>
  </g>

  <text x="30" y="138" fill="#e5e5ea" font-size="13" font-weight="600">Today</text>
  <text x="330" y="138" fill="#e5e5ea" font-size="13" font-weight="700" text-anchor="end">$125.36 · 176.5M tokens</text>

  <text x="30" y="160" fill="#8e8e93" font-size="13">Yesterday</text>
  <text x="330" y="160" fill="#c7c7cc" font-size="13" text-anchor="end">$111.88 · 165.1M tokens</text>

  <text x="30" y="182" fill="#8e8e93" font-size="13">Last 30 Days</text>
  <text x="330" y="182" fill="#c7c7cc" font-size="13" text-anchor="end">$2.9K · 3.7B tokens</text>

  <!-- budget meter -->
  <text x="20" y="216" fill="#e5e5ea" font-size="11" font-weight="600">Daily budget</text>
  <text x="340" y="216" fill="#8e8e93" font-size="11" text-anchor="end">63% used</text>
  <rect x="20" y="224" width="320" height="6" rx="3" fill="#3a3a3f"/>
  <rect x="20" y="224" width="202" height="6" rx="3" fill="#ffd60a"/>

  <!-- footer -->
  <line x1="16" y1="252" x2="344" y2="252" stroke="#38383c"/>
  <text x="20" y="276" fill="#8e8e93" font-size="11">Updated 12:04 AM</text>
  <text x="300" y="276" fill="#8e8e93" font-size="12" text-anchor="end">⚙︎</text>
  <text x="340" y="276" fill="#8e8e93" font-size="12" text-anchor="end">Quit</text>
</svg>
